<svg width="596" height="404" viewBox="0 0 596 404" fill="none" xmlns="http://www.w3.org/2000/svg">
<path d="M0 395.465L45.8095 378.394L203.279 5.78831e-05H220.458L383.654 386.929L412.285 395.465V404H343.571C323.72 404 307.496 399.637 294.898 390.912C282.301 381.808 272.948 370.049 266.84 355.634L237.637 288.3H100.781L62.988 378.394L105.934 395.465V404H0V395.465ZM106.507 274.075H231.91L168.922 123.476L106.507 274.075Z" fill="white"/>
<path d="M290.127 381.239L220.458 45.047L231.91 38.4085L302.056 193.465H466.67L467.161 17.0704L432.804 8.5352V0H596V8.5352L561.643 17.0704V386.93L596 395.465V404H432.804V395.465L467.161 386.93L466.67 207.69H308.056L383.177 386.93L290.127 381.239Z" fill="white"/>
</svg>
